<?xml version="1.0" standalone="no"?>
<!DOCTYPE svg PUBLIC "-//W3C//DTD SVG 20010904//EN"
 "http://www.w3.org/TR/2001/REC-SVG-20010904/DTD/svg10.dtd">
<svg version="1.0" xmlns="http://www.w3.org/2000/svg"
 width="2070.000000pt" height="2070.000000pt" viewBox="0 0 2070.000000 2070.000000"
 preserveAspectRatio="xMidYMid meet">
<metadata>
Created by potrace 1.14, written by Peter Selinger 2001-2017
</metadata>
<g transform="translate(0.000000,2070.000000) scale(0.100000,-0.100000)"
fill="#000000" stroke="none">
<path d="M9657 20694 c-1 -1 -81 -5 -177 -8 -96 -4 -195 -8 -220 -11 -25 -2
-81 -6 -125 -9 -192 -14 -300 -31 -601 -91 -93 -19 -179 -36 -190 -38 -10 -2
-30 -7 -44 -10 -14 -4 -110 -27 -214 -52 -210 -50 -445 -115 -641 -177 -71
-22 -134 -41 -140 -43 -5 -1 -17 -4 -25 -8 -8 -3 -105 -36 -215 -73 -110 -37
-211 -74 -225 -81 -14 -7 -29 -13 -33 -13 -4 0 -97 -36 -206 -79 -667 -266
-1294 -591 -1906 -989 -92 -59 -440 -301 -475 -329 -8 -6 -85 -65 -171 -131
-129 -99 -370 -292 -389 -312 -3 -3 -34 -30 -70 -60 -169 -143 -365 -325 -570
-531 -213 -214 -244 -247 -519 -554 -56 -62 -288 -348 -382 -470 -292 -378
-645 -915 -858 -1305 -19 -36 -45 -83 -57 -105 -117 -208 -464 -941 -464 -978
0 -7 -4 -17 -9 -22 -16 -17 -156 -383 -246 -645 -85 -246 -229 -731 -249 -837
-3 -16 -16 -82 -30 -148 -21 -103 -59 -313 -71 -395 -7 -51 -17 -126 -21 -155
-34 -281 -50 -456 -69 -750 -27 -421 -27 -1402 0 -1760 2 -22 6 -85 9 -140 4
-55 9 -120 11 -145 2 -25 7 -74 10 -110 7 -87 14 -156 19 -205 3 -22 8 -67 11
-100 6 -53 24 -188 41 -310 3 -22 7 -49 9 -60 16 -122 69 -409 100 -545 22
-94 58 -234 85 -325 11 -38 27 -94 36 -124 23 -84 157 -482 212 -631 431
-1169 1076 -2272 1876 -3210 294 -344 825 -880 1076 -1086 19 -16 40 -34 45
-40 6 -6 37 -33 70 -60 33 -27 62 -52 65 -55 8 -9 312 -251 344 -274 16 -11
40 -29 55 -41 107 -86 571 -406 726 -501 67 -41 222 -136 235 -144 8 -4 44
-26 80 -47 36 -21 90 -52 120 -69 30 -16 75 -41 100 -55 202 -112 497 -260
748 -374 101 -46 185 -84 187 -84 3 0 28 -11 57 -23 29 -13 85 -36 123 -52 39
-15 84 -34 101 -41 70 -30 371 -140 549 -200 314 -106 589 -186 810 -235 288
-64 471 -97 750 -134 66 -8 134 -17 150 -19 17 -3 62 -8 100 -11 39 -4 77 -9
86 -10 8 -2 55 -6 105 -10 49 -4 99 -8 111 -10 13 -2 73 -7 135 -10 62 -4 129
-9 148 -11 255 -25 1341 -25 1625 1 22 2 81 6 130 9 50 4 113 8 140 11 161 13
255 22 325 30 57 7 123 15 160 20 19 3 53 7 75 10 66 8 154 21 235 35 30 5 71
11 90 14 107 17 383 74 515 108 66 16 128 31 138 33 33 7 350 104 507 155 863
282 1713 686 2475 1173 117 75 353 236 529 362 49 35 323 244 357 273 161 134
329 275 350 294 14 13 46 40 70 61 379 332 839 818 1191 1259 259 323 593 799
738 1048 8 15 47 80 87 146 214 357 451 822 630 1239 194 450 341 866 484
1365 21 74 42 151 45 170 3 19 8 38 10 42 5 8 73 330 80 377 2 20 9 56 14 81
5 25 12 65 16 90 3 25 8 54 10 64 2 11 9 56 15 100 11 81 13 100 25 190 3 27
7 56 9 65 1 9 6 50 10 91 4 41 9 86 10 100 2 14 6 59 9 100 4 41 9 89 11 105
2 17 6 80 10 140 3 61 8 126 10 145 26 236 26 1260 0 1630 -2 36 -7 103 -10
150 -3 47 -8 105 -10 130 -3 25 -7 72 -10 105 -2 33 -7 76 -10 95 -2 19 -7 62
-10 95 -8 89 -44 364 -60 458 -7 45 -16 100 -20 122 -3 22 -7 47 -10 55 -2 8
-6 31 -9 50 -3 19 -15 80 -26 135 -12 55 -23 109 -26 120 -2 11 -6 31 -9 45
-3 14 -7 34 -9 45 -2 11 -21 83 -41 160 -99 378 -297 953 -462 1340 -14 33
-31 74 -38 90 -120 282 -338 724 -493 1000 -37 66 -196 335 -276 468 -130 213
-420 627 -611 872 -38 50 -75 97 -82 105 -47 61 -208 257 -217 265 -6 6 -33
37 -60 70 -27 33 -54 65 -60 70 -6 6 -45 48 -86 95 -488 550 -1204 1183 -1810
1596 -63 43 -116 82 -118 86 -2 4 -7 8 -12 8 -4 0 -68 39 -142 88 -74 48 -143
92 -154 99 -71 44 -256 155 -289 174 -725 413 -1430 719 -2190 948 -198 60
-477 128 -640 156 -16 2 -41 7 -55 10 -39 8 -250 43 -300 50 -59 8 -108 16
-132 20 -11 3 -46 7 -77 11 -31 3 -63 8 -71 9 -9 2 -43 6 -75 10 -33 4 -71 9
-85 11 -14 2 -50 6 -80 9 -30 3 -71 7 -90 10 -35 4 -87 10 -190 20 -180 18
-247 23 -485 40 -357 26 -668 37 -1058 39 -175 1 -319 1 -320 0z m723 -679
c151 -4 295 -8 320 -10 25 -1 113 -5 195 -9 83 -4 166 -9 185 -11 19 -2 78 -6
130 -10 52 -3 118 -8 145 -10 167 -13 214 -16 245 -21 34 -4 60 -7 190 -19 30
-3 71 -7 90 -9 19 -3 59 -8 89 -11 30 -4 61 -8 70 -10 9 -1 48 -6 86 -11 39
-4 72 -8 75 -9 3 -1 30 -5 60 -9 30 -5 64 -10 75 -12 10 -2 37 -6 60 -9 80
-12 262 -47 360 -71 127 -31 117 -28 205 -54 41 -12 84 -24 95 -27 11 -2 27
-7 35 -10 8 -3 103 -36 210 -73 163 -56 469 -174 585 -225 33 -14 50 -21 275
-121 313 -138 896 -438 1215 -624 50 -29 104 -60 120 -70 28 -16 161 -98 230
-141 231 -144 661 -447 761 -535 12 -11 43 -37 70 -59 201 -166 392 -342 654
-605 221 -221 288 -291 400 -420 36 -41 70 -79 76 -85 15 -14 146 -172 248
-300 48 -60 95 -119 104 -130 9 -11 71 -94 138 -185 200 -272 438 -635 577
-880 10 -19 49 -87 85 -150 54 -96 274 -525 320 -626 258 -564 498 -1239 608
-1714 7 -30 19 -82 28 -116 8 -34 17 -72 20 -85 2 -13 14 -66 26 -118 24 -106
58 -278 66 -331 2 -19 9 -55 14 -80 5 -25 12 -65 15 -90 9 -65 14 -98 25 -160
8 -46 21 -156 45 -365 11 -96 15 -135 20 -220 3 -49 8 -103 10 -120 26 -197
26 -1039 0 -1390 -8 -103 -16 -201 -20 -230 -3 -16 -7 -57 -10 -90 -3 -33 -8
-73 -10 -90 -2 -16 -7 -57 -10 -90 -3 -33 -8 -69 -10 -80 -3 -11 -7 -40 -10
-65 -2 -25 -7 -56 -9 -70 -3 -14 -12 -72 -21 -130 -9 -58 -25 -152 -36 -210
-11 -58 -22 -121 -25 -140 -3 -19 -8 -38 -10 -41 -2 -4 -6 -24 -10 -44 -31
-195 -169 -715 -282 -1060 -102 -313 -256 -711 -366 -948 -20 -43 -36 -81 -36
-83 0 -8 -255 -521 -288 -579 -15 -27 -44 -79 -64 -115 -19 -36 -50 -92 -68
-125 -18 -33 -46 -79 -61 -103 -16 -24 -29 -45 -29 -48 0 -19 -367 -580 -481
-734 -14 -19 -59 -80 -100 -135 -233 -316 -568 -705 -820 -954 -163 -161 -299
-289 -438 -411 -40 -36 -79 -69 -85 -75 -6 -5 -38 -32 -71 -60 -33 -27 -62
-52 -65 -55 -12 -13 -213 -171 -285 -225 -44 -33 -82 -63 -85 -66 -24 -28
-560 -394 -675 -461 -27 -16 -85 -51 -128 -78 -43 -28 -81 -50 -83 -50 -2 0
-23 -12 -47 -27 -131 -83 -606 -330 -848 -442 -645 -296 -1421 -557 -2067
-692 -136 -28 -132 -28 -187 -39 -70 -14 -96 -19 -130 -26 -70 -12 -81 -14
-100 -18 -11 -2 -42 -7 -68 -10 -27 -4 -58 -9 -70 -12 -26 -5 -82 -13 -132
-19 -21 -3 -50 -7 -64 -9 -82 -13 -159 -23 -251 -31 -36 -3 -76 -8 -90 -10
-14 -2 -63 -7 -110 -11 -47 -4 -98 -8 -115 -9 -42 -4 -244 -17 -335 -20 -113
-5 -631 -5 -745 0 -141 6 -373 21 -465 30 -25 3 -72 7 -105 10 -139 13 -232
24 -505 61 -67 9 -242 38 -325 54 -27 5 -61 12 -75 14 -14 3 -63 12 -110 21
-47 9 -96 19 -110 22 -14 2 -50 10 -80 18 -30 8 -66 16 -80 19 -36 7 -53 11
-170 41 -58 14 -130 32 -160 40 -50 12 -179 49 -364 104 -38 11 -150 48 -250
82 -951 322 -1851 796 -2651 1397 -77 58 -142 108 -145 112 -3 3 -25 21 -50
40 -38 29 -142 114 -260 212 -25 21 -152 134 -245 218 -194 175 -466 450 -654
660 -142 158 -152 171 -201 230 -25 30 -49 60 -55 66 -5 6 -32 39 -60 74 -27
34 -65 81 -84 103 -238 293 -590 811 -805 1187 -42 74 -81 142 -86 150 -104
172 -336 642 -462 935 -38 88 -73 169 -78 180 -17 37 -137 349 -169 440 -18
50 -36 99 -41 110 -13 30 -141 425 -146 450 -1 6 -11 42 -22 80 -12 39 -35
131 -52 205 -17 74 -35 153 -40 175 -18 73 -56 299 -84 485 -4 30 -26 203 -41
320 -2 19 -7 65 -10 101 -3 37 -7 91 -10 120 -13 132 -15 158 -20 224 -36 481
-41 1377 -10 1810 18 246 24 319 30 370 2 22 7 67 10 100 3 33 8 71 10 85 3
14 7 50 10 80 3 30 8 66 10 80 2 14 6 43 9 65 7 47 44 276 52 320 13 73 67
310 95 415 60 227 203 684 238 765 5 11 28 72 51 135 157 432 417 983 676
1433 362 630 816 1248 1324 1802 166 181 599 603 755 736 22 19 45 39 50 45
16 17 192 163 300 249 55 44 102 82 105 85 3 3 32 25 65 50 33 25 62 47 65 50
15 16 346 250 475 337 383 255 712 445 1130 652 217 108 250 123 460 213 611
262 1255 465 1860 587 83 17 168 33 190 37 22 3 43 8 47 10 4 3 29 7 55 10 26
2 59 6 73 9 89 14 130 19 295 30 55 4 114 8 132 10 17 2 137 7 265 11 128 3
234 7 235 8 3 3 341 -2 603 -9z"/>
<path d="M7553 10618 c0 -2125 3 -3865 8 -3868 4 -3 1323 -5 2931 -4 l2923 0
3 535 2 534 -2400 -1 -2400 0 0 1197 c0 949 3 1198 13 1201 6 2 965 3 2130 2
1164 0 2118 2 2119 5 0 3 2 243 3 534 l2 527 -2134 0 -2133 0 0 1064 c0 842 3
1065 13 1068 6 2 1086 3 2400 2 l2387 -1 0 534 0 533 -2933 0 -2934 0 0 -3862z"/>
</g>
</svg>
